<svg xmlns="http://www.w3.org/2000/svg" xmlns:xlink="http://www.w3.org/1999/xlink" viewBox="0,0,256,256" width="50px" height="50px"><g fill="#436850" fill-rule="nonzero" stroke="none" stroke-width="1" stroke-linecap="butt" stroke-linejoin="miter" stroke-miterlimit="10" stroke-dasharray="" stroke-dashoffset="0" font-family="none" font-weight="none" font-size="none" text-anchor="none" style="mix-blend-mode: normal"><g transform="scale(5.33333,5.33333)"><path d="M13,4c-2.74952,0 -5,2.25048 -5,5v31c0,2.74952 2.25048,5 5,5h22c2.74952,0 5,-2.25048 5,-5v-20c0.0051,-0.36064 -0.18438,-0.69608 -0.49587,-0.87789c-0.3115,-0.18181 -0.69676,-0.18181 -1.00825,0c-0.3115,0.18181 -0.50097,0.51725 -0.49587,0.87789v20c0,1.66848 -1.33152,3 -3,3h-22c-1.66848,0 -3,-1.33152 -3,-3v-31c0,-1.66848 1.33152,-3 3,-3h13.75781c0.09101,0 0.15313,0.0875 0.24219,0.09961v6.90039c0,2.19733 1.80267,4 4,4h8c0.40437,-0.00016 0.76885,-0.24381 0.92359,-0.6174c0.15474,-0.37359 0.06927,-0.8036 -0.21656,-1.08963l-10.12109,-10.12109c-0.74954,-0.75087 -1.76747,-1.17187 -2.82813,-1.17187zM29,7.41406l7.58594,7.58594h-5.58594c-1.11667,0 -2,-0.88333 -2,-2z"></path></g></g><g fill="#436850" fill-rule="nonzero" stroke="none" stroke-width="1" stroke-linecap="butt" stroke-linejoin="miter" stroke-miterlimit="10" stroke-dasharray="" stroke-dashoffset="0" font-family="none" font-weight="none" font-size="none" text-anchor="none" style="mix-blend-mode: normal"><g><path d="M105.78833,158.79333h15.62c-0.58667,8.16 -3.59667,14.58333 -9.03,19.27c-5.44,4.68667 -12.60333,7.03 -21.49,7.03v0c-9.72,0 -17.36667,-3.27333 -22.94,-9.82c-5.57333,-6.54667 -8.36,-15.53 -8.36,-26.95v0v-4.64c0,-7.29333 1.28333,-13.71667 3.85,-19.27c2.57333,-5.55333 6.24667,-9.81667 11.02,-12.79c4.77333,-2.96667 10.32,-4.45 16.64,-4.45v0c8.74667,0 15.79667,2.34333 21.15,7.03c5.34667,4.68667 8.43667,11.26667 9.27,19.74v0h-15.63c-0.38,-4.89333 -1.74333,-8.44333 -4.09,-10.65c-2.34,-2.20667 -5.90667,-3.31 -10.7,-3.31v0c-5.20667,0 -9.10333,1.86667 -11.69,5.6c-2.58667,3.73333 -3.91667,9.52333 -3.99,17.37v0v5.73c0,8.19333 1.24333,14.18333 3.73,17.97c2.48,3.78667 6.39333,5.68 11.74,5.68v0c4.82667,0 8.43,-1.10333 10.81,-3.31c2.38,-2.20667 3.74333,-5.61667 4.09,-10.23zM142.60833,108.21333l17.08,57.03l17.19,-57.03h17.4l-26.41,75.84h-16.3l-26.3,-75.84z"></path></g></g></svg>